<?xml version="1.0" encoding="utf-8"?>
<!-- Generator: Adobe Illustrator 26.0.1, SVG Export Plug-In . SVG Version: 6.00 Build 0)  -->
<svg version="1.1" id="Layer_1" xmlns="http://www.w3.org/2000/svg" xmlns:xlink="http://www.w3.org/1999/xlink" x="0px" y="0px"
	 viewBox="0 0 68.3 68.5" style="enable-background:new 0 0 68.3 68.5;" xml:space="preserve">
<style type="text/css">
	.st0{fill:#007A7A;}
</style>
<path class="st0" d="M49.2,24.8c7.5,10.6,5.1,25.2-5.5,32.8C33.2,65,18.5,62.6,11,52s-5.1-25.2,5.5-32.8c8.2-5.8,19.1-5.8,27.3,0
	l4.8-4.8C35.3,4.3,16.3,6.7,6.1,19.9s-7.8,32.2,5.5,42.4s32.2,7.8,42.4-5.5c8.4-10.9,8.4-26,0-36.9L49.2,24.8z"/>
<path class="st0" d="M45.7,28.3l-3.5,3.5c1.1,2,1.7,4.3,1.7,6.6c0,7.6-6.2,13.7-13.8,13.7c-7.6,0-13.7-6.2-13.7-13.8
	c0-7.6,6.2-13.7,13.7-13.7c2.3,0,4.6,0.6,6.6,1.7l3.5-3.5c-8.6-5.6-20.1-3.1-25.7,5.5C8.9,36.9,11.4,48.4,20,54
	c8.6,5.6,20.1,3.1,25.7-5.5C49.7,42.3,49.7,34.4,45.7,28.3L45.7,28.3z"/>
<circle class="st0" cx="30.1" cy="38.4" r="8"/>
<polygon class="st0" points="68.3,7 63,5.4 61.7,0 51.9,9.2 53,13.6 29.2,37.4 31.1,39.3 55.2,15.2 58.5,16.2 "/>
</svg>
