<?xml version="1.0" encoding="utf-8"?>
<!-- Generator: Adobe Illustrator 26.0.1, SVG Export Plug-In . SVG Version: 6.00 Build 0)  -->
<svg version="1.1" id="Layer_1" xmlns="http://www.w3.org/2000/svg" xmlns:xlink="http://www.w3.org/1999/xlink" x="0px" y="0px"
	 viewBox="0 0 58.8 69.7" style="enable-background:new 0 0 58.8 69.7;" xml:space="preserve">
<style type="text/css">
	.st0{fill:#007A7A;}
</style>
<path class="st0" d="M17.6,41l7.6,28.6L0,41H17.6z"/>
<path class="st0" d="M17.7,36.9H0l11.6-11.6c0.4-0.4,0.9-0.6,1.4-0.6h11.6L17.7,36.9z"/>
<path class="st0" d="M37.6,36.9H20.4l9-12.2L37.6,36.9z"/>
<path class="st0" d="M37,41.1l-7.6,28.6l-7.6-28.6H37z"/>
<path class="st0" d="M41.1,36.9l-7-12.2h11.6c0.5,0,1.1,0.2,1.4,0.6l11.6,11.6H41.1z"/>
<path class="st0" d="M41.3,41.1h17.6L33.6,69.7L41.3,41.1z"/>
<path class="st0" d="M29.4,11.6c-1.1,0-2-0.9-2-2V2c0-1.1,0.9-2,2-2s2,0.9,2,2v7.6c0,1.1-0.9,2-2,2C29.5,11.6,29.5,11.6,29.4,11.6z"
	/>
<path class="st0" d="M9.1,15.8L5.3,9.3c-0.6-1-0.2-2.2,0.8-2.8c1-0.6,2.2-0.2,2.8,0.8l3.8,6.5c0.6,1,0.2,2.2-0.7,2.8
	S9.7,16.8,9.1,15.8z"/>
<path class="st0" d="M46.9,16.6c-1-0.5-1.3-1.7-0.8-2.7c0,0,0,0,0-0.1l3.8-6.6c0.6-1,1.8-1.3,2.8-0.8s1.3,1.8,0.8,2.8l0,0l-3.8,6.6
	C49.2,16.8,48,17.2,46.9,16.6C47,16.6,46.9,16.6,46.9,16.6z"/>
</svg>
