<?xml version="1.0" encoding="utf-8"?>
<!-- Generator: Adobe Illustrator 26.0.1, SVG Export Plug-In . SVG Version: 6.00 Build 0)  -->
<svg version="1.1" id="Layer_1" xmlns="http://www.w3.org/2000/svg" xmlns:xlink="http://www.w3.org/1999/xlink" x="0px" y="0px"
	 viewBox="0 0 73.6 42.6" style="enable-background:new 0 0 73.6 42.6;" xml:space="preserve">
<style type="text/css">
	.st0{fill:#007A7A;}
</style>
<path class="st0" d="M42.5,11.7c8.5,3.7,12.5,13.6,8.8,22.1c-1.7,3.9-4.8,7.1-8.8,8.8c21.1-2.4,31-15.5,31-15.5S63.6,14.1,42.5,11.7
	z"/>
<path class="st0" d="M19,27.2c0-6.7,4-12.8,10.1-15.5C8.4,14.1,0,27.1,0,27.1s8.4,13,29.1,15.4C23,39.9,19,33.8,19,27.2z"/>
<path class="st0" d="M35.8,16c-6.2,0-11.1,5-11.1,11.1s5,11.1,11.1,11.1S47,33.3,47,27.2l0,0C47,21,42,16,35.8,16z M35.8,31.5
	c-2.4,0-4.3-2-4.3-4.4c0-2.4,2-4.3,4.4-4.3c2.4,0,4.3,2,4.3,4.3C40.2,29.6,38.3,31.5,35.8,31.5C35.8,31.5,35.8,31.5,35.8,31.5z
	 M41.8,22.1c-0.9,0-1.6-0.7-1.6-1.6s0.7-1.6,1.6-1.6s1.6,0.7,1.6,1.6v0C43.4,21.4,42.7,22.1,41.8,22.1
	C41.8,22.1,41.8,22.1,41.8,22.1L41.8,22.1z"/>
<path class="st0" d="M15.6,10.5c1.4-0.4,2.8-0.8,4.3-1.2l-6.8-6.8c-1.5,0.4-2.9,0.8-4.3,1.2L15.6,10.5z"/>
<path class="st0" d="M35.3,0h-1.4v7.6c0.6,0,1.1,0,1.7,0s1.4,0,2.1,0V0C37,0,36.1,0,35.3,0z"/>
<path class="st0" d="M58.5,2.7l-6.7,6.6c1.5,0.3,2.9,0.7,4.3,1.2l6.7-6.7C61.4,3.5,59.9,3.1,58.5,2.7z"/>
</svg>
